<mxfile host="app.diagrams.net" modified="2024-01-28T21:41:32.493Z" agent="Mozilla/5.0 (Windows NT 10.0; Win64; x64) AppleWebKit/537.36 (KHTML, like Gecko) Chrome/120.0.0.0 Safari/537.36 Edg/120.0.0.0" etag="QQ4bE9iZ6o3HxAbw9JBo" version="23.0.2" type="onedrive">
  <diagram name="Page-1" id="XGjGYWdxu2BIchkL1wNM">
    <mxGraphModel dx="1347" dy="944" grid="0" gridSize="10" guides="1" tooltips="1" connect="1" arrows="1" fold="1" page="1" pageScale="1" pageWidth="850" pageHeight="1100" math="0" shadow="0">
      <root>
        <mxCell id="0" />
        <mxCell id="1" parent="0" />
        <mxCell id="wNLa9lE61fAURVKKCvr4-28" value="S0&lt;br&gt;----------------&lt;br&gt;WELCOME MESASGE" style="ellipse;whiteSpace=wrap;html=1;" parent="1" vertex="1">
          <mxGeometry x="262.5" y="204" width="120" height="70" as="geometry" />
        </mxCell>
        <mxCell id="wNLa9lE61fAURVKKCvr4-29" value="S1&lt;br&gt;----------------&lt;br&gt;INITIALIZE VARIABLES" style="ellipse;whiteSpace=wrap;html=1;" parent="1" vertex="1">
          <mxGeometry x="507" y="211" width="115" height="70" as="geometry" />
        </mxCell>
        <mxCell id="wNLa9lE61fAURVKKCvr4-34" value="" style="endArrow=classic;html=1;rounded=0;entryX=0;entryY=0;entryDx=0;entryDy=0;" parent="1" target="wNLa9lE61fAURVKKCvr4-28" edge="1">
          <mxGeometry width="50" height="50" relative="1" as="geometry">
            <mxPoint x="188.35079357938662" y="148.59686453832637" as="sourcePoint" />
            <mxPoint x="454" y="284" as="targetPoint" />
          </mxGeometry>
        </mxCell>
        <mxCell id="wNLa9lE61fAURVKKCvr4-35" value="ALWAYS" style="edgeLabel;html=1;align=center;verticalAlign=middle;resizable=0;points=[];" parent="wNLa9lE61fAURVKKCvr4-34" connectable="0" vertex="1">
          <mxGeometry x="-0.05" y="1" relative="1" as="geometry">
            <mxPoint as="offset" />
          </mxGeometry>
        </mxCell>
        <mxCell id="wNLa9lE61fAURVKKCvr4-36" value="" style="curved=1;endArrow=classic;html=1;rounded=0;entryX=0.212;entryY=0.1;entryDx=0;entryDy=0;entryPerimeter=0;" parent="1" target="wNLa9lE61fAURVKKCvr4-29" edge="1">
          <mxGeometry width="50" height="50" relative="1" as="geometry">
            <mxPoint x="365.5" y="214" as="sourcePoint" />
            <mxPoint x="542.5" y="234" as="targetPoint" />
            <Array as="points">
              <mxPoint x="465.5" y="194" />
            </Array>
          </mxGeometry>
        </mxCell>
        <mxCell id="wNLa9lE61fAURVKKCvr4-37" value="USER_INPUT = ENTER" style="edgeLabel;html=1;align=center;verticalAlign=middle;resizable=0;points=[];" parent="wNLa9lE61fAURVKKCvr4-36" connectable="0" vertex="1">
          <mxGeometry x="-0.029" y="-1" relative="1" as="geometry">
            <mxPoint x="2" y="-4" as="offset" />
          </mxGeometry>
        </mxCell>
        <mxCell id="ep1GKhRnhyDZGPn8hyin-1" value="START" style="rounded=0;whiteSpace=wrap;html=1;" vertex="1" parent="1">
          <mxGeometry x="149" y="121" width="84" height="30" as="geometry" />
        </mxCell>
        <mxCell id="ep1GKhRnhyDZGPn8hyin-2" value="S2&lt;br&gt;----------------&lt;br&gt;GENERATE &lt;br&gt;CODE&amp;nbsp;" style="ellipse;whiteSpace=wrap;html=1;" vertex="1" parent="1">
          <mxGeometry x="599" y="350" width="115" height="70" as="geometry" />
        </mxCell>
        <mxCell id="ep1GKhRnhyDZGPn8hyin-3" value="S3&lt;br&gt;----------------&lt;br&gt;&amp;nbsp;PRINT GRID&amp;nbsp;" style="ellipse;whiteSpace=wrap;html=1;" vertex="1" parent="1">
          <mxGeometry x="564" y="481" width="115" height="70" as="geometry" />
        </mxCell>
        <mxCell id="ep1GKhRnhyDZGPn8hyin-4" value="S4&lt;br&gt;----------------&lt;br&gt;CHECK INPUT" style="ellipse;whiteSpace=wrap;html=1;" vertex="1" parent="1">
          <mxGeometry x="359" y="565" width="115" height="70" as="geometry" />
        </mxCell>
        <mxCell id="ep1GKhRnhyDZGPn8hyin-5" value="S5&lt;br&gt;----------------&lt;br&gt;GENERATE RESULTS&amp;nbsp;" style="ellipse;whiteSpace=wrap;html=1;" vertex="1" parent="1">
          <mxGeometry x="147.5" y="470" width="115" height="70" as="geometry" />
        </mxCell>
        <mxCell id="ep1GKhRnhyDZGPn8hyin-6" value="S6&lt;br&gt;----------------&lt;br&gt;NEW GAME" style="ellipse;whiteSpace=wrap;html=1;" vertex="1" parent="1">
          <mxGeometry x="147.5" y="323" width="115" height="70" as="geometry" />
        </mxCell>
        <mxCell id="ep1GKhRnhyDZGPn8hyin-7" value="" style="curved=1;endArrow=classic;html=1;rounded=0;entryX=0.5;entryY=0;entryDx=0;entryDy=0;exitX=0.987;exitY=0.681;exitDx=0;exitDy=0;exitPerimeter=0;" edge="1" parent="1" source="wNLa9lE61fAURVKKCvr4-29" target="ep1GKhRnhyDZGPn8hyin-2">
          <mxGeometry width="50" height="50" relative="1" as="geometry">
            <mxPoint x="624" y="270" as="sourcePoint" />
            <mxPoint x="674" y="220" as="targetPoint" />
            <Array as="points">
              <mxPoint x="674" y="299" />
            </Array>
          </mxGeometry>
        </mxCell>
        <mxCell id="ep1GKhRnhyDZGPn8hyin-8" value="ALWAYS" style="edgeLabel;html=1;align=center;verticalAlign=middle;resizable=0;points=[];" vertex="1" connectable="0" parent="ep1GKhRnhyDZGPn8hyin-7">
          <mxGeometry x="-0.0483" y="-12" relative="1" as="geometry">
            <mxPoint as="offset" />
          </mxGeometry>
        </mxCell>
        <mxCell id="ep1GKhRnhyDZGPn8hyin-9" value="" style="curved=1;endArrow=classic;html=1;rounded=0;entryX=0.691;entryY=0.024;entryDx=0;entryDy=0;entryPerimeter=0;" edge="1" parent="1" target="ep1GKhRnhyDZGPn8hyin-3">
          <mxGeometry width="50" height="50" relative="1" as="geometry">
            <mxPoint x="660" y="420" as="sourcePoint" />
            <mxPoint x="610" y="470" as="targetPoint" />
            <Array as="points">
              <mxPoint x="660" y="470" />
            </Array>
          </mxGeometry>
        </mxCell>
        <mxCell id="ep1GKhRnhyDZGPn8hyin-10" value="ALWAYS&amp;nbsp;" style="edgeLabel;html=1;align=center;verticalAlign=middle;resizable=0;points=[];" vertex="1" connectable="0" parent="ep1GKhRnhyDZGPn8hyin-9">
          <mxGeometry x="-0.2695" y="-4" relative="1" as="geometry">
            <mxPoint as="offset" />
          </mxGeometry>
        </mxCell>
        <mxCell id="ep1GKhRnhyDZGPn8hyin-11" value="" style="curved=1;endArrow=classic;html=1;rounded=0;entryX=-0.017;entryY=0.705;entryDx=0;entryDy=0;entryPerimeter=0;exitX=0.905;exitY=0.175;exitDx=0;exitDy=0;exitPerimeter=0;" edge="1" parent="1" source="ep1GKhRnhyDZGPn8hyin-6" target="wNLa9lE61fAURVKKCvr4-29">
          <mxGeometry width="50" height="50" relative="1" as="geometry">
            <mxPoint x="236" y="370" as="sourcePoint" />
            <mxPoint x="286" y="320" as="targetPoint" />
            <Array as="points">
              <mxPoint x="301" y="288" />
            </Array>
          </mxGeometry>
        </mxCell>
        <mxCell id="ep1GKhRnhyDZGPn8hyin-25" value="AGAIN_INPUT = &#39;Y&#39;" style="edgeLabel;html=1;align=center;verticalAlign=middle;resizable=0;points=[];" vertex="1" connectable="0" parent="ep1GKhRnhyDZGPn8hyin-11">
          <mxGeometry x="-0.1614" y="-8" relative="1" as="geometry">
            <mxPoint x="31" y="4" as="offset" />
          </mxGeometry>
        </mxCell>
        <mxCell id="ep1GKhRnhyDZGPn8hyin-12" value="" style="curved=1;endArrow=classic;html=1;rounded=0;exitX=0.5;exitY=1;exitDx=0;exitDy=0;entryX=1;entryY=0.5;entryDx=0;entryDy=0;" edge="1" parent="1" source="ep1GKhRnhyDZGPn8hyin-3" target="ep1GKhRnhyDZGPn8hyin-4">
          <mxGeometry width="50" height="50" relative="1" as="geometry">
            <mxPoint x="614" y="553" as="sourcePoint" />
            <mxPoint x="564" y="603" as="targetPoint" />
            <Array as="points">
              <mxPoint x="576" y="609" />
            </Array>
          </mxGeometry>
        </mxCell>
        <mxCell id="ep1GKhRnhyDZGPn8hyin-13" value="GAME_WON = &quot;&quot;" style="edgeLabel;html=1;align=center;verticalAlign=middle;resizable=0;points=[];" vertex="1" connectable="0" parent="ep1GKhRnhyDZGPn8hyin-12">
          <mxGeometry x="-0.2734" y="-8" relative="1" as="geometry">
            <mxPoint as="offset" />
          </mxGeometry>
        </mxCell>
        <mxCell id="ep1GKhRnhyDZGPn8hyin-14" value="" style="curved=1;endArrow=classic;html=1;rounded=0;exitX=0;exitY=0;exitDx=0;exitDy=0;entryX=0.952;entryY=0.797;entryDx=0;entryDy=0;entryPerimeter=0;" edge="1" parent="1" source="ep1GKhRnhyDZGPn8hyin-3" target="ep1GKhRnhyDZGPn8hyin-6">
          <mxGeometry width="50" height="50" relative="1" as="geometry">
            <mxPoint x="411" y="405" as="sourcePoint" />
            <mxPoint x="361" y="455" as="targetPoint" />
            <Array as="points">
              <mxPoint x="490" y="373" />
            </Array>
          </mxGeometry>
        </mxCell>
        <mxCell id="ep1GKhRnhyDZGPn8hyin-15" value="GAME_WON = &quot;TRUE&quot;/&lt;br&gt;&amp;nbsp;PRINT(&quot;YOU WIN!&quot;)" style="edgeLabel;html=1;align=center;verticalAlign=middle;resizable=0;points=[];rotation=0;" vertex="1" connectable="0" parent="ep1GKhRnhyDZGPn8hyin-14">
          <mxGeometry x="-0.0391" y="-22" relative="1" as="geometry">
            <mxPoint x="-102" y="26" as="offset" />
          </mxGeometry>
        </mxCell>
        <mxCell id="ep1GKhRnhyDZGPn8hyin-16" value="OR" style="edgeLabel;html=1;align=center;verticalAlign=middle;resizable=0;points=[];" vertex="1" connectable="0" parent="ep1GKhRnhyDZGPn8hyin-14">
          <mxGeometry x="-0.083" y="-15" relative="1" as="geometry">
            <mxPoint x="-28" y="38" as="offset" />
          </mxGeometry>
        </mxCell>
        <mxCell id="ep1GKhRnhyDZGPn8hyin-17" value="GAME_WON = &quot;FALSE&quot;/&lt;br&gt;PRINT(&quot;YOU LOOSE!&quot;)" style="edgeLabel;html=1;align=center;verticalAlign=middle;resizable=0;points=[];" vertex="1" connectable="0" parent="ep1GKhRnhyDZGPn8hyin-14">
          <mxGeometry x="-0.3744" y="-11" relative="1" as="geometry">
            <mxPoint y="35" as="offset" />
          </mxGeometry>
        </mxCell>
        <mxCell id="ep1GKhRnhyDZGPn8hyin-18" value="" style="curved=1;endArrow=classic;html=1;rounded=0;exitX=0;exitY=0.5;exitDx=0;exitDy=0;entryX=0.5;entryY=1;entryDx=0;entryDy=0;" edge="1" parent="1" source="ep1GKhRnhyDZGPn8hyin-4" target="ep1GKhRnhyDZGPn8hyin-5">
          <mxGeometry width="50" height="50" relative="1" as="geometry">
            <mxPoint x="250" y="594" as="sourcePoint" />
            <mxPoint x="200" y="644" as="targetPoint" />
            <Array as="points">
              <mxPoint x="296" y="590" />
            </Array>
          </mxGeometry>
        </mxCell>
        <mxCell id="ep1GKhRnhyDZGPn8hyin-19" value="ERROR = FALSE" style="edgeLabel;html=1;align=center;verticalAlign=middle;resizable=0;points=[];" vertex="1" connectable="0" parent="ep1GKhRnhyDZGPn8hyin-18">
          <mxGeometry x="0.1804" y="-10" relative="1" as="geometry">
            <mxPoint as="offset" />
          </mxGeometry>
        </mxCell>
        <mxCell id="ep1GKhRnhyDZGPn8hyin-20" value="" style="curved=1;endArrow=classic;html=1;rounded=0;exitX=0.671;exitY=0.994;exitDx=0;exitDy=0;entryX=0.35;entryY=1.013;entryDx=0;entryDy=0;exitPerimeter=0;entryPerimeter=0;" edge="1" parent="1" source="ep1GKhRnhyDZGPn8hyin-4" target="ep1GKhRnhyDZGPn8hyin-4">
          <mxGeometry width="50" height="50" relative="1" as="geometry">
            <mxPoint x="490" y="715" as="sourcePoint" />
            <mxPoint x="353" y="636" as="targetPoint" />
            <Array as="points">
              <mxPoint x="474" y="679" />
              <mxPoint x="401" y="679" />
            </Array>
          </mxGeometry>
        </mxCell>
        <mxCell id="ep1GKhRnhyDZGPn8hyin-21" value="ERROR = TRUE&amp;nbsp;" style="edgeLabel;html=1;align=center;verticalAlign=middle;resizable=0;points=[];" vertex="1" connectable="0" parent="ep1GKhRnhyDZGPn8hyin-20">
          <mxGeometry x="-0.0503" y="3" relative="1" as="geometry">
            <mxPoint y="6" as="offset" />
          </mxGeometry>
        </mxCell>
        <mxCell id="ep1GKhRnhyDZGPn8hyin-22" value="" style="curved=1;endArrow=classic;html=1;rounded=0;exitX=1;exitY=0;exitDx=0;exitDy=0;entryX=0.018;entryY=0.322;entryDx=0;entryDy=0;entryPerimeter=0;" edge="1" parent="1" source="ep1GKhRnhyDZGPn8hyin-5" target="ep1GKhRnhyDZGPn8hyin-3">
          <mxGeometry width="50" height="50" relative="1" as="geometry">
            <mxPoint x="294" y="482" as="sourcePoint" />
            <mxPoint x="344" y="432" as="targetPoint" />
            <Array as="points">
              <mxPoint x="437" y="432" />
            </Array>
          </mxGeometry>
        </mxCell>
        <mxCell id="ep1GKhRnhyDZGPn8hyin-23" value="ALWAYS&amp;nbsp;" style="edgeLabel;html=1;align=center;verticalAlign=middle;resizable=0;points=[];" vertex="1" connectable="0" parent="ep1GKhRnhyDZGPn8hyin-22">
          <mxGeometry x="0.5752" y="-6" relative="1" as="geometry">
            <mxPoint x="-82" y="-17" as="offset" />
          </mxGeometry>
        </mxCell>
        <mxCell id="ep1GKhRnhyDZGPn8hyin-26" value="" style="curved=1;endArrow=classic;html=1;rounded=0;entryX=0.024;entryY=0.648;entryDx=0;entryDy=0;entryPerimeter=0;exitX=0.413;exitY=0.025;exitDx=0;exitDy=0;exitPerimeter=0;" edge="1" parent="1" source="ep1GKhRnhyDZGPn8hyin-6" target="wNLa9lE61fAURVKKCvr4-28">
          <mxGeometry width="50" height="50" relative="1" as="geometry">
            <mxPoint x="202" y="320" as="sourcePoint" />
            <mxPoint x="252" y="270" as="targetPoint" />
            <Array as="points">
              <mxPoint x="202" y="270" />
            </Array>
          </mxGeometry>
        </mxCell>
        <mxCell id="ep1GKhRnhyDZGPn8hyin-27" value="AGAIN_INPUT != &#39;Y&#39;" style="edgeLabel;html=1;align=center;verticalAlign=middle;resizable=0;points=[];" vertex="1" connectable="0" parent="ep1GKhRnhyDZGPn8hyin-26">
          <mxGeometry x="0.1093" y="-10" relative="1" as="geometry">
            <mxPoint as="offset" />
          </mxGeometry>
        </mxCell>
        <mxCell id="ep1GKhRnhyDZGPn8hyin-28" value="&lt;font style=&quot;font-size: 18px;&quot;&gt;&lt;u&gt;HW0X01 FINITE STATE MACHINE&lt;/u&gt;&lt;/font&gt;" style="text;html=1;align=center;verticalAlign=middle;resizable=0;points=[];autosize=1;strokeColor=none;fillColor=none;" vertex="1" parent="1">
          <mxGeometry x="37" y="29" width="300" height="34" as="geometry" />
        </mxCell>
      </root>
    </mxGraphModel>
  </diagram>
</mxfile>
